<?xml version="1.0" encoding="utf-8"?>
<!-- Generator: Adobe Illustrator 21.0.0, SVG Export Plug-In . SVG Version: 6.00 Build 0)  -->
<svg version="1.1" id="Layer_1" xmlns="http://www.w3.org/2000/svg" xmlns:xlink="http://www.w3.org/1999/xlink" x="0px" y="0px"
	 viewBox="0 0 370.8 419.7" style="enable-background:new 0 0 370.8 419.7;" xml:space="preserve">
<style type="text/css">
	.st0{fill:#F9F9F9;}
	.st1{fill:none;stroke:#F9F9F9;stroke-width:4.252;}
</style>
<path class="st0" d="M337.6,19.1c4.7,8.5,1.8,35.8-0.3,46.2c-6,29.8-19.6,58.9-46,76.1c-15.3,10-31.7,10.6-47.7,5.6
	c-24.8-7.9-50.4-28.3-77.8-19.3c-16.6,5.5-37.6,24.8-47.1,45.2c28.3-27.4,45.2-37.1,72.9-31.5c33.7,6.9,52.2,28.1,91.4,19.4
	c24.6-5.4,42.7-22.7,58.2-46.5c12.1-18.5,19.7-38.8,21.2-51.5c2.6,48.7-26.1,94.8-71.3,111.2c-36.1,13.1-55.9-4.3-87.9-12.9
	c-24.5-6.6-55.1-6.5-71.6,17.2c22.6-11.8,41.7-11.3,59.5-6.7c31.5,8.2,70.1,32,106.3,19c20.7-7.5,38.6-24.6,52.4-40.4
	c9.2-10.5,16.9-23,18.7-28.2c-5.1,32.6-39.3,73.7-70.4,84.9c-37.4,13.4-76.9-10.2-111.1-20.4c-13.9-4.2-38-8.5-60.6,13.6
	c23.3-10.2,40.9-11.8,65.5-1.6c35.3,14.7,66.4,32.2,101.9,27.4c30.8-4.1,62.7-36.9,74.8-65.2c-9.6,49.5-51.1,75.5-76.9,79
	c-39,5.3-72-15.4-105.9-28.2c-9.7-3.6-19.6-5.1-28.6-4.4c-21,1.6-37.3,14.4-35.4,36.8c2.1,24.4,16.7,35.6,32.5,51.9l5,5.2
	c5.3,5.6,9.2,11,13.3,17.9c14.4,24.2,21.6,73.9-6.5,90.6c12.2-14.6,14.4-48.2,9.3-66.4c-2.7-9.4-6.4-17.2-10.8-25.3
	c-2-3.6-12.7-17.3-16.3-19.4c12.6,14.9,19,44.7,15.2,65.8c-0.8,4.7-6.1,20.9-10.3,22.6c3.3-9.5,6.5-36.4,1.8-54.4
	c-2.4-9.2-10.8-31.4-19.8-35.1c8.5,5.5,15.8,43.6,15.3,56.2c-0.4,10.3-1.9,18.8-4.5,26.5c-4.6,13.7-13.9,31.7-26.3,39.6
	c11.2-20.5,22.9-46.2,22.9-70.1c0-40.4-18.5-44.9-39.8-74.2c-29-40-15.2-80,8.3-116.8c3.7-5.7,7.3-14.8,9.6-24.6
	c2.4-10.3,3.3-21.5,1.2-30.8c-7-29.5-34.1-33.1-50.5-23.8c-13.7,7.7-27.7,28.9-24.5,44.6c8.9-7.4,15.7-7.6,24.3-11.9
	c8.2-4.1,29-12.9,25.4-25.8c1.6-0.2,3.3,0.6,4.5,1.7c1.3,1.1,2.2,3.9,2.1,6.4c-0.4,11.5-14.6,20.4-23.2,25.2
	c-13.8,7.8-28.7,7.3-34.2,23.5c-0.3,0.8-1.7,7.4,1.2,9c-18.4-20.7-13-64.1,18.3-83.3c4.9-3,9.8-6.1,14.1-11.1
	c1.3-1.8,2.9-4.1,4.6-6.8c4.3-7.8,10.3-20.5,11.1-29.5c0,0,8.1,17-6.7,38.9c9.1-4.3,18.5-11.2,24.8-20c8.7-12.2,12.7-27.6,12.9-39.5
	c12.4,49.6-24.4,62.1-26.6,62.9c18.7,1.6,35.6,15.9,35.5,48.7c0,6.7-1.4,13.6-2.8,20.1c-0.3,1-0.6,1.3-0.8,2.2
	c53.4-58.6,66.8-10,125.5-5.9c15.1,1.1,32.6-7.2,45.5-21.2C326.6,80.9,337.6,44.3,337.6,19.1L337.6,19.1z"/>
<g>
	<g>
		<path class="st1" d="M142.4,45.9c47.8,0,89.8,24.5,114.1,61.7 M261,249.4c-15.8,27.9-41.2,49.6-71.7,60.8 M112.3,315.3
			C51.5,301.6,6,247.2,6,182.2c0-22.3,5.3-43.3,14.8-61.9"/>
	</g>
</g>
</svg>
